<?xml version="1.0" encoding="UTF-8"?>
<svg id="Layer_2" xmlns="http://www.w3.org/2000/svg" version="1.1" viewBox="0 0 823 144.3">
  <!-- Generator: Adobe Illustrator 30.2.1, SVG Export Plug-In . SVG Version: 2.1.1 Build 1)  -->
  <g id="Logo">
    <g>
      <path d="M0,0v144h94.3c12.5,0,22.7-10.1,22.7-22.7v-35.2c0-7.8-6.3-14.2-14.2-14.2h-3.8v59H18V13h81v35.7l-58.8,21.4c-6.7,2.4-11.2,8.8-11.2,16v1.9l73.1-26.6c9-3.3,14.9-11.8,14.9-21.3v-17.5C117,10.2,106.8,0,94.3,0H0Z"/>
      <path d="M805,144h18v-50.6c0-7.8-6.3-14.2-14.2-14.2h-3.8v64.8ZM706,0v144h18V13h81v42.9l-58.8,21.4c-6.7,2.4-11.2,8.8-11.2,16v1.9l73.1-26.6c9-3.3,14.9-11.8,14.9-21.3v-24.6C823,10.2,812.8,0,800.3,0,800.3,0,706,0,706,0Z"/>
      <path d="M166,131V13h88V0h-83.3c-12.5,0-22.7,10.1-22.7,22.7v98.7c0,12.5,10.1,22.7,22.7,22.7h85.3v-13h-90ZM250,61.5v-13.8l-61.8,22.5c-6.7,2.4-11.2,8.8-11.2,16v1.9l73-26.6Z"/>
      <path d="M589,131V13h88V0h-83.3c-12.5,0-22.7,10.1-22.7,22.7v98.7c0,12.5,10.2,22.7,22.7,22.7h85.3v-13h-90ZM673,61.5v-13.8l-61.8,22.5c-6.7,2.4-11.2,8.8-11.2,16v1.9l73-26.6Z"/>
      <path d="M432.6,0h-18.6l34.1,127.2c2.7,9.9,11.6,16.8,21.9,16.8h24.9c10.3,0,19.3-6.9,21.9-16.8L550.8,0h-18.6l-35.1,131h-29.4L432.6,0Z"/>
      <path d="M409.4,144l-34.1-127.2C372.6,6.9,363.6,0,353.4,0h-24.9C318.2,0,309.2,6.9,306.6,16.8l-34.1,127.2h18.6L326.2,13h29.4l22.3,83.1h-49.5c-7.7,0-14.4,5.2-16.4,12.6v.4c-.1,0,69.4,0,69.4,0l9.4,34.9h18.6Z"/>
    </g>
  </g>
</svg>