<?xml version="1.0" encoding="UTF-8"?>
<svg id="Layer_2" data-name="Layer 2" xmlns="http://www.w3.org/2000/svg" viewBox="0 0 223.62 170.08">
  <g id="Logo">
    <path d="M13.06,79.6L73.04,0h-14.09c-5.93,0-11.52,2.79-15.09,7.52L11.51,50.46C3.84,60.64,0,72.84,0,85.04s3.84,24.4,11.51,34.58l32.35,42.93c3.57,4.74,9.16,7.52,15.09,7.52h14.09L13.06,90.48v-10.89ZM212.11,50.46L179.76,7.52c-3.57-4.74-9.16-7.52-15.09-7.52h-14.09l59.98,79.6v10.89l-59.98,79.6h14.09c5.93,0,11.52-2.79,15.09-7.52l32.35-42.93c7.67-10.18,11.51-22.38,11.51-34.58s-3.84-24.4-11.51-34.58ZM96.31,66.26c.77,2.7,3.24,4.56,6.06,4.56h18.88c2.81,0,5.28-1.86,6.06-4.56l3.46-12.08c.87-3.02-1.4-6.03-4.54-6.03h-28.84c-3.14,0-5.41,3.01-4.54,6.03l3.46,12.08ZM78.77,38.08c-.43-1.5-1.8-2.54-3.36-2.54h-10.49c-1.56,0-2.93,1.03-3.36,2.54l-1.93,6.71c-.48,1.68.78,3.35,2.52,3.35h16.03c1.75,0,3-1.67,2.52-3.35l-1.93-6.71ZM164,44.8l-1.93-6.71c-.43-1.5-1.8-2.54-3.36-2.54h-10.49c-1.56,0-2.93,1.03-3.36,2.54l-1.93,6.71c-.48,1.68.78,3.35,2.52,3.35h16.03c1.75,0,3-1.67,2.52-3.35ZM82.52,107.58l6.53,22.76c.77,2.7,3.25,4.56,6.06,4.56h8c3.13,0,5.67-2.54,5.67-5.67v-28.15c-6.73-.12-13.22-.63-19.35-1.47-4.51-.62-8.16,3.59-6.91,7.97ZM134.2,99.61c-6.13.84-12.62,1.35-19.35,1.47v28.15c0,3.13,2.54,5.67,5.67,5.67h8c2.81,0,5.28-1.86,6.06-4.56l6.53-22.76c1.25-4.38-2.4-8.59-6.91-7.97Z"/>
  </g>
</svg>