<?xml version="1.0" encoding="UTF-8"?>
<svg id="Layer_2" data-name="Layer 2" xmlns="http://www.w3.org/2000/svg" viewBox="0 0 180 78.51">
  <g id="Logo">
    <path d="M53.37,44.91c3.98-1.73,8.83-7.2,8.61-14.37l-.33-11.04c-7.48,3.25-15.63,5.23-24.18,5.7l3.01,53.32h6.12l-2.55-51.48c3.86-.55,7.61-1.41,11.25-2.54l.32,8.71c.27,7.18-1.58,9.36-6.12,11.22-.12.05-.19.15-.2.26-.02.12.03.25.15.33,4.76,2.99,6.84,6.31,7.01,10.78l.85,22.72h6.12l-.65-21.01c-.17-6.1-3.97-9.65-9.41-12.6ZM27.31,58.85l1.27,17.19h-6.11c-2.16-18.73-7.29-36.56-14.9-53.01,5.57,2.12,11.47,3.59,17.6,4.29l1.18,15.83c.28,3.95,6.5,2.29,6.5,2.29l-1.33-20.15c-9.43-.27-18.4-2.39-26.55-6.01-1.36-.6-2.61.03-3.66,1.08-1.16,1.16-1.7,2.45-.99,3.84,8.52,16.7,14.35,35,16.93,54.33h17.62l-1.47-22.3s-6.35-1.09-6.09,2.63ZM90.17,0c-1.91,0-2.85.46-3.51,1.22-5.4,6.17-11.86,11.38-19.09,15.37l1.48,61.93h24.02l.27-76.53c0-1.31-1.46-1.98-3.16-1.98ZM75.13,76.03l-1.02-60.53c4.58-3.06,8.79-6.62,12.56-10.61l.25,71.14h-11.79ZM133.02,76.03h-7.58c-1.73,0-3.12-1.18-3.06-2.91l1.88-51.36c-2.2-.73-4.35-1.56-6.45-2.49l-1.6,54.06c-.05,1.65-1.4,2.71-3.06,2.71h-7.78l1.1-63.12c-2.28-1.57-4.46-3.27-6.54-5.08l-.74,70.68h13.91c3.12,0,5.74-2.1,6.08-5.2h.22c.33,3.08,2.94,5.2,6.08,5.2h13.53l2.98-53.35c-2.18-.14-4.34-.37-6.46-.69l-2.52,51.56ZM178.69,20.34c-1.05-1.05-2.3-1.68-3.66-1.08-8.15,3.62-17.12,5.74-26.55,6.01l-3.35,53.24h6.11l3.58-51.21c6.13-.7,12.03-2.16,17.6-4.29-7.95,17.17-13.19,35.85-15.18,55.49h5.5c2.58-19.33,8.41-37.63,16.93-54.33.71-1.39.17-2.68-.99-3.84Z"/>
  </g>
</svg>