<?xml version="1.0" encoding="UTF-8"?>
<svg id="Layer_2" data-name="Layer 2" xmlns="http://www.w3.org/2000/svg" viewBox="0 0 601.59 125.67">
  <g id="Logo">
    <g>
      <path d="M0,123.55V2.12h83.09v14.51H16.81v37.52h58.66v14.69H16.81v40.18h67.33v14.51H0Z"/>
      <path d="M234.67,123.55V2.12h44.07c12.15,0,22.57,2.12,31.24,6.37s15.28,10.83,19.82,19.74c4.54,8.91,6.81,20.44,6.81,34.6s-2.27,25.37-6.81,34.34c-4.54,8.97-11.15,15.61-19.82,19.91-8.67,4.31-19.15,6.46-31.42,6.46h-43.9ZM251.48,109.03h26.55c6.37,0,12.1-.82,17.17-2.48,5.07-1.65,9.38-4.25,12.92-7.79,3.54-3.54,6.22-8.05,8.05-13.54,1.83-5.49,2.74-12.18,2.74-20.09v-4.07c0-8.14-.92-14.98-2.74-20.53-1.83-5.54-4.51-10.09-8.05-13.63-3.54-3.54-7.82-6.13-12.83-7.79-5.02-1.65-10.77-2.48-17.26-2.48h-26.55v92.39Z"/>
      <path d="M410.91,125.67c-12.27,0-22.74-2.3-31.42-6.9s-15.34-11.56-20-20.89c-4.66-9.32-6.99-21-6.99-35.05s2.33-25.87,6.99-35.13c4.66-9.26,11.33-16.2,20-20.8s19.14-6.9,31.42-6.9,22.6,2.3,31.33,6.9c8.73,4.6,15.46,11.54,20.18,20.8,4.72,9.27,7.08,20.97,7.08,35.13s-2.36,25.73-7.08,35.05c-4.72,9.32-11.45,16.28-20.18,20.89-8.73,4.6-19.18,6.9-31.33,6.9ZM410.91,111.16c6.25,0,11.95-.94,17.08-2.83,5.13-1.89,9.47-4.69,13.01-8.41,3.54-3.72,6.22-8.44,8.05-14.16,1.83-5.72,2.74-12.59,2.74-20.62v-4.25c0-8.14-.92-15.1-2.74-20.89-1.83-5.78-4.51-10.53-8.05-14.25s-7.88-6.52-13.01-8.41c-5.13-1.89-10.83-2.83-17.08-2.83s-12.24.95-17.26,2.83c-5.02,1.89-9.27,4.69-12.74,8.41-3.48,3.72-6.2,8.47-8.14,14.25-1.95,5.78-2.92,12.74-2.92,20.89v4.25c0,8.03.97,14.9,2.92,20.62,1.95,5.73,4.66,10.44,8.14,14.16,3.48,3.72,7.73,6.52,12.74,8.41,5.01,1.89,10.77,2.83,17.26,2.83Z"/>
      <polygon points="192.6 2.12 192.6 109.03 188.42 109.03 136.28 2.12 104.95 2.12 104.95 123.55 121.41 123.55 121.41 16.64 125.59 16.64 177.73 123.55 209.06 123.55 209.06 2.12 192.6 2.12"/>
      <polygon points="583.48 2.12 548.43 62.83 583.48 123.55 601.59 123.55 601.59 2.12 583.48 2.12"/>
      <polygon points="560.49 109.03 505.11 109.03 505.11 16.64 560.49 16.64 568.86 2.12 488.29 2.12 488.29 123.55 568.87 123.55 560.49 109.03"/>
    </g>
  </g>
</svg>