<?xml version="1.0" encoding="UTF-8"?>
<svg id="Layer_2" data-name="Layer 2" xmlns="http://www.w3.org/2000/svg" viewBox="0 0 1080 870.55">
  <defs>
    <style>
      .cls-1 {
        fill: #fff;
      }
    </style>
  </defs>
  <g id="Logo">
    <g>
      <path class="cls-1" d="M1049.08,706.75c32.02-39.79,20.23-133.34-14.54-169.51,16.7-47.27-11.38-100.75-54.45-126.4,32.77-45.94,37.04-67.53,8.86-134.3-9.95-23.58-23.59-52.66-51.87-62.4,8.13-30.38,1.98-60.01-15.77-87.74-20.65-32.76-65.38-42.23-106.15-41.87-47.18-1.06-91.76,14.98-136.48,17.93-18.01-18.01-50.54-29.89-72.88-26.79-21.62,3.01-37.16,20.19-41.18,43.66-32.81-13.23-63.41-15.26-105.05-16.5-11.86-31.89-42.13-51.98-64.99-53.37-21.19-1.29-44.96,11.6-55.93,34.92C318.4,35.3,243.08,0,200.32,0,125.09,0,0,149,0,298.78c0,59,17.84,114.27,57.69,147.53-58.31,52.09-39.99,117.96-7.81,181.84-24.98,16.09-32.9,41.68-32.9,69.55,0,43.4,26.92,172.82,118.1,172.82,45.64,0,104.45-14.7,159.79-56.41,1.41,18.7,11.06,32.31,27.54,37.68,38.66,12.6,108.74-9.73,141.19-39.26,40.09,36.08,138.96,41.35,169.79,18.49,28.12,43.17,144.66,54.42,165.15,16.42,57.26,18.24,86.47,3.2,93.6-29.86,46.57,57.98,118.14,35.72,156.99-3.13,28.53-28.53,35.06-60.31,28.54-89.97,0,0-28.01-17.35-28.6-17.72Z"/>
      <path d="M151.72,412.73c74.45,0,126.97-82.22,135.77-103.19,7.45-17.76,36.08-52.84,31.22-66.59-2.81-7.95-27.54-15.6-49.42-20.91,24.93-4.01,53.83-9.39,82.51-14.26-15.49,62.91-29.95,134.47-34.41,154.36,1.36,10.93,13.22,24.67,37.98,35.24,17.33,7.4,22.55,3.33,21.73-8.34-1.32-18.72.4-47.2,2.96-60.54,1.49-7.8,5.11-24.93,9.49-45.96,36.37,52.35,121,154.25,137.96,160.43,16.44,5.99,54.64-31.07,58.98-41.84,2.52-6.25-13.52-14.47-33.04-24.51,3.95-8.4,7.95-16.99,11.94-25.62,14.9-1.58,34.28-5.78,55.67-10.91-.05,9.04-.12,16.02-.2,21.14-.86,51.65-3.57,72.16,2.86,78.58,7.66,7.66,54.63,29.22,62.73,21.12,7.99-7.99-3.52-70.03-12.02-133.91,17.73-4.26,35.5-8.27,52.17-11.25,2.2,30.42,4.66,63.82,5.93,95.58.55,13.61.02,34.44,5.6,35.99,5.29,1.47,28.6-7.43,39.27-17.05,51.52-17.49,171.72-38.52,173.62-100.25.44-14.31-25.86-71.4-33.18-73.9-25.17-8.58-67.2-8.76-97.64.33,41.56-21.33,63.06-55.39,63.8-79.65,0-7.92-2.28-18.6-10.26-30.93-9.45-14.61-46.68-18.04-81.83-14.92-33.8,3-62.79,12.51-93.99,15.35-4.91,10.74,1.49,23.71,7.14,29.35,6.89,6.89,27.46,6.14,49.05,3.43-14.32,9.78-24.59,20.1-29.15,29.31-3.88,7.86-3.21,33.96-1.05,68.44-19.5,3.95-37.38,8.38-53.95,12.85-.86-8.3-1.58-16.46-2.12-24.35-4.84-70.4-.26-85.83-.26-85.83,9.78-14.53-3.52-28.36-17.72-39.23-13.75-10.52-27.88-17.38-31.29-13.98-3.4,3.4-4.15,36.37-4.15,36.37-35.28,59.43-79.33,141.21-104.36,188.34-.23-.18-.47-.36-.69-.54-25.4-20.18-56.05-60.56-56.05-60.56,67.32-30.61,105.96-90.78,100.95-118.81-3.06-17.1-64.5-26.3-139.52-21.86,1.09-8.57,1.43-14.47.72-16.46-4.31-12.03-12.47-34.62-27.14-29.77-5.88,1.94-13.78,22.3-22.21,50.95-79.86,11.11-114.54,34.64-185.02,37.3-2.71,10.66,3.18,36.88,33.54,36.88,4.78,0,10.41-.34,16.73-.95-18.19,61-60.77,145.07-98.56,139.13-42.43-6.67-17.27-164.62,75.42-241.7,23.14,14.93,30.57,32.43,43.19,27.53,5.58-2.17,36.97-40.31,35.23-55.27-2.46-21.15-61.56-51.55-86.31-51.55-27.78,0-137.2,99.66-143.37,233.77-4.18,90.95,42.39,133.61,94.77,133.61ZM877.16,296.51c6.73,11.96-39.47,50.03-94.96,83.68-1.31-23.64-4.12-49.16-7.09-74.35,41.73-11.92,98.8-15.1,102.05-9.33ZM765.98,177.42c24.63-3.71,47.56-8.64,49.89-6.31,5.49,5.49-21.52,42.42-48.28,68.26-2.29-24.23-3.37-45.77-1.61-61.95ZM620.78,222.64c.21,33.04.31,59.73.33,80.93-13.82,3.97-26.65,7.5-38.73,10.17,18.81-41.76,34.6-78.68,38.4-91.09ZM406.28,199.43c26.32-3.39,49.78-5.09,66.33-3.29-17.13,19.17-51.4,36.53-74.94,46.95,2.98-14.68,5.96-29.65,8.61-43.67ZM529.91,569.44c-7.77-7.18-38.66,4.01-56.06,12.84-14.1,7.15-2.58,31.26,1.92,46.87,4.17,14.46,7.88,51.7,8.53,58.6-25.19-21.65-54.7-69.7-80.76-96.56-8.94-22.04-12.2-23.73-30.87-25.2-14.28-1.13-19.31,1.16-24.65,10.18,16.37,43.96-14.43,192.89,1.38,208.58,5.41,5.37,47.5-3.68,58.37-13.06,3.87-8.23.08-25.78.58-66.79.16-13.52-.47-46.78-1.29-50.75,25.59,33.95,65.35,107.47,89.01,111.59,9.87-.84,30.81-4.6,32.22-11.3-1.94-71.6,7.06-179.99,1.63-185.01ZM546.09,499.56c-52.12-26.47-97.93-92.48-103.73-95.7-4.66-2.59-26.55,5.28-26.55,10.38,0,1.28.66,3.95,1.92,7.64-71.84,18.16-98.49,60.16-98.49,85.7,0,23.2,92.81,58.71,129.85,21.66,6.98-6.98,12.56-15.87,17.37-27.74,24.89,28.28,44.91,41.33,56.99,41.33,9.06,0,32.19-38.41,22.62-43.27ZM383.62,484.91c10.33-12.53,27.57-23.98,48.34-31.93,5.08,9.28,11.25,19.23,18.37,28.77-18.95,8.75-43.48,9.6-66.71,3.16ZM788.43,492.79c0-9.77-10.95-28.78-15.89-30.07-38.82-10.13-94.8,34.18-97.36,75.85-2.79,45.48,34.81,74.13,77.38,63.89,38.17-9.18,39.22-57.04,29.9-56.87-11.2.21-23.77,16.75-57.66,16.75,4.15-39.65,63.63-60.92,63.63-69.56ZM757.59,637.31c-7,5.52-27.57,7.41-60.25,12.97-9.7-24-19.19-47.53-27.47-67.58-11.77-28.5-24.97-59.09-31.42-90.57-6.15-5.46-43.24-14.62-59.14-5.55-5.13,2.92,7.88,20,11.75,41.19-16.07,92.06-28.64,186.87-35.63,253.27,7.63,11.41,42.38-2.49,49.82-11.69,4.28-5.3,3.8-40.18,5.82-68.18,15.8-3.04,30.14-5.33,43.12-7.14,11.87,49.41,19.39,91.05,29.37,97.08,15.75,9.52,83.5,17.1,74.07.31-8.97-15.97-26.56-58.09-45.34-104.23,17.54-2.06,29.9-4.2,38.01-8.94,16.84-9.85,12.02-34.07,7.29-40.94ZM613.52,669.23c1.65-23.83,3.31-48.01,8.75-76.89,9.43,21.42,17.03,45.08,23.42,68.4-10.1,2.42-20.84,5.22-32.17,8.48ZM935.58,681.99c-16.88-14.25-58.44-56.73-69.49-65.66,25.67-31.99,89.53-102.73,116.46-116.57,4.29-17.67-22.73-52.34-35.64-52.34-16.07,0-62.5,73.81-92.65,125.11,4.14-39.69,7.42-73.77,7.42-89.51s-20.91-41.03-39.25-29.48c0,31.5-49.82,247.68-49.82,288.94,10.34,29.29,53.16,47.41,65.37,43.21,6.02-2.07-.36-13.92-.36-24.02,0-22.62,3.54-62.59,7.9-105.67,31.45,48.17,92.07,122.26,108.96,128.93,14.09,5.56,66.51-20.68,66.51-40.22-27.28-16.9-63.36-44.1-85.41-62.72ZM918.46,612.03c12.85,14.11,62.57,57.06,83.78,49.66,16.49-5.76,7.54-93.88-13.14-99.06-13.97-3.5-56.75,30.93-70.64,49.41ZM296.51,580.27c-58.94-33.19-153.75-36.04-159.29-42.23,16.08-21.08,56.64-45.93,92.98-55.01,0,0-15.41,35.24-15.41,39.82s40.45,4.94,51.64-6.25c11.79-11.79,16.85-49.12,37-65.62,5.96-7.64-10.83-53.66-28.56-49.59-114.18,26.23-211.08,70.53-197.35,125.09,11.17,44.39,25.01,86.8,53.84,85.49,53.27-2.43,143.74.59,146.96,21.62,3.84,25.05-56.75,81.91-121.43,92.62-3.08-25.7-2.05-46.58-4.34-59.11-1.56-8.55-42.1-11.46-73.22-1.73-16.66,5.21,8.21,130.92,49.89,136.6,44.04,6,179.71-32.63,196.71-153.05,2.67-18.92.1-29-5.34-42.32-4.46-10.91-8.18-17.37-24.08-26.32Z"/>
    </g>
  </g>
</svg>